<mxfile host="app.diagrams.net" modified="2022-06-28T06:59:29.542Z" agent="5.0 (Windows NT 10.0; Win64; x64) AppleWebKit/537.36 (KHTML, like Gecko) Chrome/102.0.0.0 Safari/537.36" etag="2HfO1TunBYQi3KUw9JZF" version="20.0.3" type="github">
  <diagram name="Page-1" id="74e2e168-ea6b-b213-b513-2b3c1d86103e">
    <mxGraphModel dx="2062" dy="1122" grid="1" gridSize="10" guides="1" tooltips="1" connect="1" arrows="1" fold="1" page="1" pageScale="1" pageWidth="1100" pageHeight="850" background="none" math="0" shadow="0">
      <root>
        <mxCell id="0" />
        <mxCell id="1" parent="0" />
        <mxCell id="77e6c97f196da883-1" value="&lt;div&gt;&lt;span style=&quot;font-size: 8px;&quot;&gt;Customer registration&lt;/span&gt;&lt;/div&gt;" style="swimlane;html=1;childLayout=stackLayout;startSize=20;rounded=0;shadow=0;labelBackgroundColor=none;strokeWidth=1;fontFamily=Verdana;fontSize=8;align=center;" parent="1" vertex="1">
          <mxGeometry x="70" y="40" width="980" height="1200" as="geometry" />
        </mxCell>
        <mxCell id="77e6c97f196da883-2" value="OCMB APP" style="swimlane;html=1;startSize=20;" parent="77e6c97f196da883-1" vertex="1">
          <mxGeometry y="20" width="310" height="1180" as="geometry">
            <mxRectangle x="40" y="20" width="40" height="730" as="alternateBounds" />
          </mxGeometry>
        </mxCell>
        <mxCell id="Akt3h3AdRs0SpvcwCt5--16" value="&lt;div&gt;Application for registration&lt;/div&gt;" style="rounded=1;whiteSpace=wrap;html=1;" parent="77e6c97f196da883-2" vertex="1">
          <mxGeometry x="60" y="50" width="120" height="60" as="geometry" />
        </mxCell>
        <mxCell id="Akt3h3AdRs0SpvcwCt5--24" value="&lt;div&gt;Registration page&lt;/div&gt;" style="whiteSpace=wrap;html=1;rounded=1;" parent="77e6c97f196da883-2" vertex="1">
          <mxGeometry x="70" y="190" width="120" height="60" as="geometry" />
        </mxCell>
        <mxCell id="Akt3h3AdRs0SpvcwCt5--60" value="error message" style="rounded=1;whiteSpace=wrap;html=1;" parent="77e6c97f196da883-2" vertex="1">
          <mxGeometry x="80" y="320" width="120" height="60" as="geometry" />
        </mxCell>
        <mxCell id="Akt3h3AdRs0SpvcwCt5--62" value="&lt;div&gt;Fill&amp;nbsp;&lt;span style=&quot;background-color: initial;&quot;&gt;registration information&lt;/span&gt;&lt;/div&gt;" style="whiteSpace=wrap;html=1;" parent="77e6c97f196da883-2" vertex="1">
          <mxGeometry x="90" y="433" width="120" height="60" as="geometry" />
        </mxCell>
        <mxCell id="Akt3h3AdRs0SpvcwCt5--104" value="&lt;div&gt;regist account/customer successful&lt;/div&gt;" style="whiteSpace=wrap;html=1;rounded=0;" parent="77e6c97f196da883-2" vertex="1">
          <mxGeometry x="90" y="1052" width="120" height="60" as="geometry" />
        </mxCell>
        <mxCell id="77e6c97f196da883-4" value="OCMB API" style="swimlane;html=1;startSize=20;" parent="77e6c97f196da883-1" vertex="1">
          <mxGeometry x="310" y="20" width="320" height="1180" as="geometry">
            <mxRectangle x="80" y="20" width="40" height="730" as="alternateBounds" />
          </mxGeometry>
        </mxCell>
        <mxCell id="Akt3h3AdRs0SpvcwCt5--19" value="&lt;div&gt;Read registration process configuration&lt;/div&gt;" style="rounded=1;whiteSpace=wrap;html=1;" parent="77e6c97f196da883-4" vertex="1">
          <mxGeometry x="85" y="50" width="120" height="60" as="geometry" />
        </mxCell>
        <mxCell id="Akt3h3AdRs0SpvcwCt5--34" value="" style="edgeStyle=orthogonalEdgeStyle;rounded=0;orthogonalLoop=1;jettySize=auto;html=1;" parent="77e6c97f196da883-4" source="Akt3h3AdRs0SpvcwCt5--31" target="Akt3h3AdRs0SpvcwCt5--33" edge="1">
          <mxGeometry relative="1" as="geometry" />
        </mxCell>
        <mxCell id="Akt3h3AdRs0SpvcwCt5--31" value="&lt;div&gt;Check information&lt;/div&gt;" style="rhombus;whiteSpace=wrap;html=1;" parent="77e6c97f196da883-4" vertex="1">
          <mxGeometry x="100" y="310" width="80" height="80" as="geometry" />
        </mxCell>
        <mxCell id="Akt3h3AdRs0SpvcwCt5--33" value="create mobile user" style="whiteSpace=wrap;html=1;" parent="77e6c97f196da883-4" vertex="1">
          <mxGeometry x="80" y="433" width="120" height="60" as="geometry" />
        </mxCell>
        <mxCell id="Akt3h3AdRs0SpvcwCt5--82" style="edgeStyle=orthogonalEdgeStyle;rounded=0;orthogonalLoop=1;jettySize=auto;html=1;exitX=0.5;exitY=1;exitDx=0;exitDy=0;" parent="77e6c97f196da883-4" source="Akt3h3AdRs0SpvcwCt5--71" target="Akt3h3AdRs0SpvcwCt5--81" edge="1">
          <mxGeometry relative="1" as="geometry" />
        </mxCell>
        <mxCell id="Akt3h3AdRs0SpvcwCt5--71" value="save data" style="rounded=1;whiteSpace=wrap;html=1;" parent="77e6c97f196da883-4" vertex="1">
          <mxGeometry x="80" y="553" width="120" height="60" as="geometry" />
        </mxCell>
        <mxCell id="Akt3h3AdRs0SpvcwCt5--96" style="edgeStyle=orthogonalEdgeStyle;rounded=0;orthogonalLoop=1;jettySize=auto;html=1;exitX=0.5;exitY=1;exitDx=0;exitDy=0;entryX=0.5;entryY=0;entryDx=0;entryDy=0;" parent="77e6c97f196da883-4" source="Akt3h3AdRs0SpvcwCt5--81" target="Akt3h3AdRs0SpvcwCt5--94" edge="1">
          <mxGeometry relative="1" as="geometry" />
        </mxCell>
        <mxCell id="Akt3h3AdRs0SpvcwCt5--81" value="&lt;div&gt;Token verification&lt;/div&gt;" style="rhombus;whiteSpace=wrap;html=1;" parent="77e6c97f196da883-4" vertex="1">
          <mxGeometry x="100" y="680" width="80" height="80" as="geometry" />
        </mxCell>
        <mxCell id="Akt3h3AdRs0SpvcwCt5--94" value="get token" style="rounded=0;whiteSpace=wrap;html=1;" parent="77e6c97f196da883-4" vertex="1">
          <mxGeometry x="80" y="820" width="120" height="60" as="geometry" />
        </mxCell>
        <mxCell id="Akt3h3AdRs0SpvcwCt5--101" value="update user info" style="whiteSpace=wrap;html=1;rounded=0;" parent="77e6c97f196da883-4" vertex="1">
          <mxGeometry x="80" y="1052" width="120" height="60" as="geometry" />
        </mxCell>
        <mxCell id="Akt3h3AdRs0SpvcwCt5--1" value="PISMO API" style="swimlane;html=1;startSize=20;" parent="77e6c97f196da883-1" vertex="1">
          <mxGeometry x="630" y="20" width="350" height="1180" as="geometry">
            <mxRectangle x="120" y="20" width="40" height="730" as="alternateBounds" />
          </mxGeometry>
        </mxCell>
        <mxCell id="Akt3h3AdRs0SpvcwCt5--85" value="request token" style="rounded=0;whiteSpace=wrap;html=1;" parent="Akt3h3AdRs0SpvcwCt5--1" vertex="1">
          <mxGeometry x="70" y="690" width="120" height="60" as="geometry" />
        </mxCell>
        <mxCell id="Akt3h3AdRs0SpvcwCt5--98" value="regist&amp;nbsp; account/customer" style="whiteSpace=wrap;html=1;rounded=0;" parent="Akt3h3AdRs0SpvcwCt5--1" vertex="1">
          <mxGeometry x="70" y="934" width="120" height="60" as="geometry" />
        </mxCell>
        <mxCell id="Akt3h3AdRs0SpvcwCt5--22" style="edgeStyle=orthogonalEdgeStyle;rounded=0;orthogonalLoop=1;jettySize=auto;html=1;exitX=1;exitY=0.5;exitDx=0;exitDy=0;entryX=0;entryY=0.5;entryDx=0;entryDy=0;" parent="77e6c97f196da883-1" source="Akt3h3AdRs0SpvcwCt5--16" target="Akt3h3AdRs0SpvcwCt5--19" edge="1">
          <mxGeometry relative="1" as="geometry" />
        </mxCell>
        <mxCell id="Akt3h3AdRs0SpvcwCt5--26" style="edgeStyle=orthogonalEdgeStyle;rounded=0;orthogonalLoop=1;jettySize=auto;html=1;exitX=0.5;exitY=1;exitDx=0;exitDy=0;entryX=1;entryY=0.5;entryDx=0;entryDy=0;" parent="77e6c97f196da883-1" source="Akt3h3AdRs0SpvcwCt5--19" target="Akt3h3AdRs0SpvcwCt5--24" edge="1">
          <mxGeometry relative="1" as="geometry" />
        </mxCell>
        <mxCell id="Akt3h3AdRs0SpvcwCt5--29" style="edgeStyle=orthogonalEdgeStyle;rounded=0;orthogonalLoop=1;jettySize=auto;html=1;exitX=0.5;exitY=1;exitDx=0;exitDy=0;" parent="77e6c97f196da883-1" source="Akt3h3AdRs0SpvcwCt5--24" target="Akt3h3AdRs0SpvcwCt5--31" edge="1">
          <mxGeometry relative="1" as="geometry">
            <mxPoint x="535" y="330" as="targetPoint" />
          </mxGeometry>
        </mxCell>
        <mxCell id="Akt3h3AdRs0SpvcwCt5--32" value="regist mobile user" style="edgeLabel;html=1;align=center;verticalAlign=middle;resizable=0;points=[];" parent="Akt3h3AdRs0SpvcwCt5--29" vertex="1" connectable="0">
          <mxGeometry x="0.129" y="2" relative="1" as="geometry">
            <mxPoint as="offset" />
          </mxGeometry>
        </mxCell>
        <mxCell id="Akt3h3AdRs0SpvcwCt5--61" value="" style="edgeStyle=orthogonalEdgeStyle;rounded=0;orthogonalLoop=1;jettySize=auto;html=1;" parent="77e6c97f196da883-1" source="Akt3h3AdRs0SpvcwCt5--31" target="Akt3h3AdRs0SpvcwCt5--60" edge="1">
          <mxGeometry relative="1" as="geometry" />
        </mxCell>
        <mxCell id="Akt3h3AdRs0SpvcwCt5--93" value="error" style="edgeLabel;html=1;align=center;verticalAlign=middle;resizable=0;points=[];" parent="Akt3h3AdRs0SpvcwCt5--61" vertex="1" connectable="0">
          <mxGeometry x="-0.25" relative="1" as="geometry">
            <mxPoint as="offset" />
          </mxGeometry>
        </mxCell>
        <mxCell id="Akt3h3AdRs0SpvcwCt5--63" value="" style="edgeStyle=orthogonalEdgeStyle;rounded=0;orthogonalLoop=1;jettySize=auto;html=1;" parent="77e6c97f196da883-1" source="Akt3h3AdRs0SpvcwCt5--33" target="Akt3h3AdRs0SpvcwCt5--62" edge="1">
          <mxGeometry relative="1" as="geometry" />
        </mxCell>
        <mxCell id="Akt3h3AdRs0SpvcwCt5--72" style="edgeStyle=orthogonalEdgeStyle;rounded=0;orthogonalLoop=1;jettySize=auto;html=1;exitX=0.5;exitY=1;exitDx=0;exitDy=0;entryX=0;entryY=0.5;entryDx=0;entryDy=0;" parent="77e6c97f196da883-1" source="Akt3h3AdRs0SpvcwCt5--62" target="Akt3h3AdRs0SpvcwCt5--71" edge="1">
          <mxGeometry relative="1" as="geometry" />
        </mxCell>
        <mxCell id="Akt3h3AdRs0SpvcwCt5--90" style="edgeStyle=orthogonalEdgeStyle;rounded=0;orthogonalLoop=1;jettySize=auto;html=1;exitX=1;exitY=0.5;exitDx=0;exitDy=0;entryX=0;entryY=0.5;entryDx=0;entryDy=0;" parent="77e6c97f196da883-1" source="Akt3h3AdRs0SpvcwCt5--81" target="Akt3h3AdRs0SpvcwCt5--85" edge="1">
          <mxGeometry relative="1" as="geometry" />
        </mxCell>
        <mxCell id="Akt3h3AdRs0SpvcwCt5--92" value="&lt;div&gt;&lt;span style=&quot;font-size: 11px;&quot;&gt;Need to get token&lt;/span&gt;&lt;/div&gt;" style="edgeLabel;html=1;align=center;verticalAlign=middle;resizable=0;points=[];" parent="Akt3h3AdRs0SpvcwCt5--90" vertex="1" connectable="0">
          <mxGeometry x="-0.1875" y="1" relative="1" as="geometry">
            <mxPoint as="offset" />
          </mxGeometry>
        </mxCell>
        <mxCell id="Akt3h3AdRs0SpvcwCt5--97" style="edgeStyle=orthogonalEdgeStyle;rounded=0;orthogonalLoop=1;jettySize=auto;html=1;exitX=0.5;exitY=1;exitDx=0;exitDy=0;entryX=1;entryY=0.5;entryDx=0;entryDy=0;" parent="77e6c97f196da883-1" source="Akt3h3AdRs0SpvcwCt5--85" target="Akt3h3AdRs0SpvcwCt5--94" edge="1">
          <mxGeometry relative="1" as="geometry" />
        </mxCell>
        <mxCell id="Akt3h3AdRs0SpvcwCt5--100" style="edgeStyle=orthogonalEdgeStyle;rounded=0;orthogonalLoop=1;jettySize=auto;html=1;exitX=0.5;exitY=1;exitDx=0;exitDy=0;entryX=0;entryY=0.5;entryDx=0;entryDy=0;" parent="77e6c97f196da883-1" source="Akt3h3AdRs0SpvcwCt5--94" target="Akt3h3AdRs0SpvcwCt5--98" edge="1">
          <mxGeometry relative="1" as="geometry" />
        </mxCell>
        <mxCell id="Akt3h3AdRs0SpvcwCt5--103" style="edgeStyle=orthogonalEdgeStyle;rounded=0;orthogonalLoop=1;jettySize=auto;html=1;exitX=0.5;exitY=1;exitDx=0;exitDy=0;entryX=1;entryY=0.5;entryDx=0;entryDy=0;" parent="77e6c97f196da883-1" source="Akt3h3AdRs0SpvcwCt5--98" target="Akt3h3AdRs0SpvcwCt5--101" edge="1">
          <mxGeometry relative="1" as="geometry" />
        </mxCell>
        <mxCell id="Akt3h3AdRs0SpvcwCt5--105" value="" style="edgeStyle=orthogonalEdgeStyle;rounded=0;orthogonalLoop=1;jettySize=auto;html=1;" parent="77e6c97f196da883-1" source="Akt3h3AdRs0SpvcwCt5--101" target="Akt3h3AdRs0SpvcwCt5--104" edge="1">
          <mxGeometry relative="1" as="geometry" />
        </mxCell>
      </root>
    </mxGraphModel>
  </diagram>
</mxfile>
